<svg width="21" height="24" viewBox="0 0 21 24" fill="none" xmlns="http://www.w3.org/2000/svg">
<path fill-rule="evenodd" clip-rule="evenodd" d="M6.00001 0.416667C6.00001 0.186548 6.18656 0 6.41668 0H14.5833C14.8135 0 15 0.186548 15 0.416667V12.5H19.9918C20.4002 12.5 20.5648 13.0266 20.2291 13.2592L10.7369 19.8356C10.5941 19.9345 10.405 19.9345 10.2623 19.8356L0.770004 13.2592C0.43429 13.0266 0.598879 12.5 1.00729 12.5H6.00001V0.416667ZM1.11642 21.6C0.886304 21.6 0.699756 21.7865 0.699756 22.0166V22.9833C0.699756 23.2134 0.886305 23.4 1.11642 23.4H20.0831C20.3132 23.4 20.4998 23.2134 20.4998 22.9833V22.0166C20.4998 21.7865 20.3132 21.6 20.0831 21.6H1.11642Z" fill="#25BD6B"/>
</svg>
