<svg width="32" height="32" viewBox="0 0 32 32" fill="none" xmlns="http://www.w3.org/2000/svg">
<circle cx="16" cy="16" r="16" fill="#242C75"/>
<path fill-rule="evenodd" clip-rule="evenodd" d="M16.0001 31.8861C24.7738 31.8861 31.8862 24.7736 31.8862 16C31.8862 7.22633 24.7738 0.113892 16.0001 0.113892C7.35585 0.113892 0.324156 7.01812 0.118652 15.6129C0.325578 7.13708 7.3567 4.19716 16 4.19716C24.7737 4.19716 31.8861 7.22639 31.8861 16C31.8861 24.7737 24.7737 27.8029 16 27.8029C7.35842 27.8029 0.328384 24.8641 0.118777 16.3922C0.326981 24.9846 7.35759 31.8861 16.0001 31.8861Z" fill="#3C4AC3"/>
<g filter="url(#filter0_d_53_9)">
<circle cx="16" cy="16" r="5.79375" fill="white"/>
</g>
<defs>
<filter id="filter0_d_53_9" x="5.00828" y="5.00828" width="21.9834" height="21.9836" filterUnits="userSpaceOnUse" color-interpolation-filters="sRGB">
<feFlood flood-opacity="0" result="BackgroundImageFix"/>
<feColorMatrix in="SourceAlpha" type="matrix" values="0 0 0 0 0 0 0 0 0 0 0 0 0 0 0 0 0 0 127 0" result="hardAlpha"/>
<feOffset/>
<feGaussianBlur stdDeviation="2.59901"/>
<feComposite in2="hardAlpha" operator="out"/>
<feColorMatrix type="matrix" values="0 0 0 0 0 0 0 0 0 0 0 0 0 0 0 0 0 0 0.4 0"/>
<feBlend mode="normal" in2="BackgroundImageFix" result="effect1_dropShadow_53_9"/>
<feBlend mode="normal" in="SourceGraphic" in2="effect1_dropShadow_53_9" result="shape"/>
</filter>
</defs>
</svg>
