<svg width="29" height="20" viewBox="0 0 29 20" fill="none" xmlns="http://www.w3.org/2000/svg">
<path fill-rule="evenodd" clip-rule="evenodd" d="M0.79602 2.28856C0.35639 2.28856 0 2.64495 0 3.08458V19.204C0 19.6436 0.356391 20 0.796021 20H28.1052C28.5448 20 28.9012 19.6436 28.9012 19.204V3.08458C28.9012 2.64495 28.5448 2.28856 28.1052 2.28856H21.6759H20.9399C20.6684 2.28856 20.4157 2.15024 20.2694 1.92162L19.2745 0.366941C19.1282 0.138313 18.8754 0 18.604 0H10.3516C10.1042 0 9.87089 0.114997 9.72023 0.311185L8.44067 1.97737C8.29001 2.17356 8.0567 2.28856 7.80934 2.28856H0.79602ZM14.7554 16.689C18.0686 16.6806 20.7479 13.9365 20.7396 10.56C20.7313 7.18351 18.0386 4.45316 14.7253 4.46162C11.4121 4.47007 8.73285 7.21411 8.74114 10.5906C8.74944 13.9671 11.4421 16.6975 14.7554 16.689ZM14.7498 14.4295C12.6611 14.4348 10.9636 12.7136 10.9583 10.585C10.9531 8.45635 12.6421 6.72646 14.7309 6.72113C16.8196 6.7158 18.5171 8.43706 18.5224 10.5657C18.5276 12.6943 16.8386 14.4242 14.7498 14.4295Z" fill="#3C4AC3"/>
</svg>
