<svg width="28" height="28" viewBox="0 0 28 28" fill="none" xmlns="http://www.w3.org/2000/svg">
<path fill-rule="evenodd" clip-rule="evenodd" d="M11.2771 0.259259C11.2771 0.116074 11.3932 0 11.5364 0H16.4623C16.6055 0 16.7216 0.116074 16.7216 0.259259V4.11971C16.7216 4.23504 16.7979 4.33617 16.908 4.37049C17.5464 4.56949 18.1578 4.83009 18.735 5.14534C18.8377 5.2014 18.9653 5.18461 19.048 5.10192L21.7911 2.35886C21.8923 2.25761 22.0565 2.25761 22.1577 2.35886L25.6409 5.84202C25.7421 5.94326 25.7421 6.10742 25.6409 6.20866L22.8743 8.97525C22.7924 9.05717 22.7751 9.18332 22.8294 9.28561C23.1329 9.85646 23.3833 10.4599 23.574 11.0893C23.6077 11.2004 23.7093 11.2778 23.8254 11.2778H27.7403C27.8835 11.2778 27.9996 11.3938 27.9996 11.537V16.4629C27.9996 16.6061 27.8835 16.7222 27.7403 16.7222H23.8406C23.724 16.7222 23.6221 16.8002 23.5888 16.9119C23.3999 17.5473 23.1502 18.1565 22.8464 18.7329C22.7926 18.835 22.8101 18.9607 22.8917 19.0424L25.6407 21.7913C25.7419 21.8926 25.7419 22.0567 25.6407 22.158L22.1575 25.6411C22.0563 25.7424 21.8921 25.7424 21.7909 25.6411L19.0806 22.9309C18.9977 22.8479 18.8696 22.8313 18.7668 22.8879C18.1803 23.211 17.5583 23.4775 16.908 23.6801C16.7979 23.7145 16.7216 23.8156 16.7216 23.9309V27.7407C16.7216 27.8839 16.6055 27.9999 16.4623 27.9999H11.5364C11.3932 27.9999 11.2771 27.8839 11.2771 27.7407V23.9931C11.2771 23.8757 11.1981 23.7733 11.0854 23.7408C10.4107 23.5459 9.76495 23.2827 9.15619 22.959C9.0539 22.9047 8.92775 22.922 8.84583 23.0039L6.20879 25.6409C6.10755 25.7422 5.94339 25.7422 5.84215 25.6409L2.35899 22.1578C2.25774 22.0565 2.25774 21.8924 2.35899 21.7911L4.97238 19.1778C5.05507 19.0951 5.07186 18.9674 5.0158 18.8648C4.67996 18.2498 4.40612 17.5961 4.2027 16.912C4.16947 16.8002 4.06754 16.7223 3.95092 16.7223H0.259259C0.116074 16.7223 0 16.6062 0 16.463V11.5371C0 11.3939 0.116074 11.2778 0.259259 11.2778H3.96608C4.08219 11.2778 4.1838 11.2005 4.21747 11.0894C4.42284 10.4115 4.69748 9.76377 5.03318 9.15429C5.08977 9.05154 5.07316 8.92341 4.99022 8.84047L2.3586 6.20886C2.25735 6.10761 2.25735 5.94346 2.3586 5.84221L5.84176 2.35905C5.943 2.25781 6.10716 2.25781 6.2084 2.35905L8.87866 5.02931C8.96033 5.11098 9.086 5.12847 9.18817 5.07462C9.78747 4.75878 10.4224 4.50135 11.0854 4.30993C11.1981 4.27736 11.2771 4.17495 11.2771 4.05756V0.259259ZM8.84021 14.038C8.8472 16.8301 11.1163 19.0879 13.9084 19.0809C16.7005 19.0739 18.9583 16.8048 18.9513 14.0127C18.9443 11.2206 16.6752 8.9628 13.8831 8.96978C11.091 8.97677 8.83322 11.2459 8.84021 14.038Z" fill="#D10909"/>
</svg>
